<svg viewBox="0 0 800 800" xmlns="http://www.w3.org/2000/svg"><path d="M627.1223587993331,399.7928845813555 L627.6271522162765,136.62020309425617 M171.79644819346407,662.6754216386655 L171.28714267341633,398.9146534865732 M627.1223587993331,399.7928845813555 L656.0204125884197,418.8363968641516 M656.0204125884197,418.8363968641516 L680.1756723838171,439.97797588075423 M680.1756723838171,439.97797588075423 L699.1351407711786,462.8278506540285 M699.1351407711786,462.8278506540285 L712.5408617259536,486.9638015786932 M712.5408617259536,486.9638015786932 L720.1369093094543,511.93878278924393 M720.1369093094543,511.93878278924393 L721.7746026327745,537.2890653885381 M721.7746026327745,537.2890653885381 L717.4157882528871,562.5427420780344 M717.4157882528871,562.5427420780344 L707.1341653783636,587.2285201590184 M707.1341653783636,587.2285201590184 L691.1144508785462,610.8845395988358 M691.1144508785462,610.8845395988358 L669.6494049256983,633.0671225826036 M669.6494049256983,633.0671225826036 L643.1348470191028,653.3592734921406 M643.1348470191028,653.3592734921406 L612.0626144020898,671.3787351519672 M612.0626144020898,671.3787351519672 L577.0114860963847,686.7854042492536 M577.0114860963847,686.7854042492536 L538.6364257155524,699.2879867592815 M538.6364257155524,699.2879867592815 L497.6562695590394,708.649787008346 M497.6562695590394,708.649787008346 L454.8400259680267,714.6933846309735 M454.8400259680267,714.6933846309735 L410.9921086713073,717.3041396701269 M410.9921086713073,717.3041396701269 L366.9368445243563,716.4325064678383 M366.9368445243563,716.4325064678383 L323.5025955659801,712.0950362669985 M323.5025955659801,712.0950362669985 L281.50570351992565,704.3740175927069 M281.50570351992565,704.3740175927069 L241.73477621116348,693.4158418402108 M241.73477621116348,693.4158418402108 L204.9355162358771,679.4280894062349 M204.9355162358771,679.4280894062349 L171.79644819346407,662.6754216386655 M627.6271522162765,136.62020309425617 L656.5896079180886,155.62093924843958 M656.5896079180886,155.62093924843958 L680.7987869888736,176.71506131179535 M680.7987869888736,176.71506131179535 L699.8006742544851,199.51368224865894 M699.8006742544851,199.51368224865894 L713.236502294787,223.5955371855094 M713.236502294787,223.5955371855094 L720.849756734252,248.51458796766025 M720.849756734252,248.51458796766025 L722.4914041709778,273.8081475966883 M722.4914041709778,273.8081475966883 L718.1231834572297,299.00536549000674 M718.1231834572297,299.00536549000674 L707.8189355402399,323.63600072264603 M707.8189355402399,323.63600072264603 L691.7637682793563,347.23922054298487 M691.7637682793563,347.23922054298487 L670.2510769914131,369.3723307810975 M670.2510769914131,369.3723307810975 L643.6775506469103,389.61925746644056 M643.6775506469103,389.61925746644056 L612.5361155231467,407.59858588148455 M612.5361155231467,407.59858588148455 L577.4068395177835,422.9709603372522 M577.4068395177835,422.9709603372522 L538.9461510324811,435.4457256984241 M538.9461510324811,435.4457256984241 L497.8744992051054,444.7867044538351 M497.8744992051054,444.7867044538351 L454.9626218713633,450.81686406465866 M454.9626218713633,450.81686406465866 L411.0167447690549,453.4218149075524 M411.0167447690549,453.4218149075524 L366.8630532411263,452.5521194517809 M366.8630532411263,452.5521194517809 L323.33177723508936,448.2242928231068 M323.33177723508936,448.2242928231068 L281.2410983182582,440.52044392051175 M281.2410983182582,440.52044392051175 L241.38139946849395,429.586644323655 M241.38139946849395,429.586644323655 L204.50005854866328,415.6300203637085 M204.50005854866328,415.6300203637085 L171.28714267341633,398.9146534865732 M171.79644819346407,662.6754216386655 L142.93591731342815,643.4742979869716 M142.93591731342815,643.4742979869716 L118.89044034508174,622.1867973207693 M118.89044034508174,622.1867973207693 L100.10487259581794,599.2135127708375 M100.10487259581794,599.2135127708375 L86.92427255272321,574.985816545148 M86.92427255272321,574.985816545148 L79.58787000940617,549.9575586899425 M79.58787000940617,549.9575586899425 L78.2250894535054,524.5964192750705 M78.2250894535054,524.5964192750705 L82.8536955114269,499.37511077383374 M82.8536955114269,499.37511077383374 L93.37998011026332,474.7625253556906 M93.37998011026332,474.7625253556906 L109.60108115581892,451.2150948457639 M109.60108115581892,451.2150948457639 L131.2093024644456,429.1684436503441 M131.2093024644456,429.1684436503441 L157.79820567179888,409.02948606268717 M157.79820567179888,409.02948606268717 L188.87043963691679,391.1691177793904 M188.87043963691679,391.1691177793904 L223.84722494555888,375.91564292876495 M223.84722494555888,375.91564292876495 L262.079111211044,363.5489935584742 M262.079111211044,363.5489935584742 L302.8578806378221,354.2957836998938 M302.8578806378221,354.2957836998938 L345.4294609496708,348.3253800447561 M345.4294609496708,348.3253800447561 L389.0075840953622,345.74699385387646 M389.0075840953622,345.74699385387646 L432.7879328037961,346.6077700057791 M432.7879328037961,346.6077700057791 L475.9625346305082,350.89196262131895 M475.9625346305082,350.89196262131895 L517.7343048619762,358.52123459409836 M517.7343048619762,358.52123459409836 L557.3313320812008,369.35599905070063 M557.3313320812008,369.35599905070063 L594.0208110697436,383.19782858661347 M594.0208110697436,383.19782858661347 L627.1223587993331,399.7928845813555 M171.28714267341633,398.9146534865732 L142.36237721333055,379.756308306365 M142.36237721333055,379.756308306365 L118.26347053106667,358.51626676418596 M118.26347053106667,358.51626676418596 L99.43625938431376,335.59423788780043 M99.43625938431376,335.59423788780043 L86.22655614106873,311.4206390164328 M86.22655614106873,311.4206390164328 L78.87410457882504,286.44831238345137 M78.87410457882504,286.44831238345137 L77.50859582902223,261.14389610063887 M77.50859582902223,261.14389610063887 L82.14781130414758,235.97904591324033 M82.14781130414758,235.97904591324033 L92.69781196820924,211.42160225304153 M92.69781196820924,211.42160225304153 L108.95526382255679,187.92696974561537 M108.95526382255679,187.92696974561537 L130.61176893455706,165.92978927296807 M130.61176893455706,165.92978927296807 L157.2599721148648,145.8360536314126 M157.2599721148648,145.8360536314126 L188.40140859878332,128.01581622894105 M188.40140859878332,128.01581622894105 L223.45601009262788,112.79663374533476 M223.45601009262788,112.79663374533476 L261.7728860053925,100.45779950716047 M261.7728860053925,100.45779950716047 L302.64225305366284,91.22540953215929 M302.64225305366284,91.22540953215929 L345.30837607158423,85.2684428040767 M345.30837607158423,85.2684428040767 L388.9832559174163,82.69586032987308 M388.9832559174163,82.69586032987308 L432.8608060634487,83.55469889611021 M432.8608060634487,83.55469889611021 L476.13127708208896,87.82924872894193 M476.13127708208896,87.82924872894193 L517.9958302908865,95.44135229001216 M517.9958302908865,95.44135229001216 L557.6808535752559,106.25174242133716 M557.6808535752559,106.25174242133716 L594.4519239633223,120.06244564894195 M594.4519239633223,120.06244564894195 L627.6271522162765,136.62020309425617 M570.5221868274168,366.8236409077547 L570.8066062809787,169.27943427150979 M570.8066062809787,169.27943427150979 L595.4837480282531,185.82663987262254 M595.4837480282531,185.82663987262254 L615.3664830891203,204.39202840893083 M615.3664830891203,204.39202840893083 L629.962268923565,224.52182848643216 M629.962268923565,224.52182848643216 L638.9071216317261,245.7230430779395 M638.9071216317261,245.7230430779395 L641.974957124253,267.475340929176 M641.974957124253,267.475340929176 L639.0837843688289,289.24372144351014 M639.0837843688289,289.24372144351014 L630.2983016016151,310.4916097865553 M630.2983016016151,310.4916097865553 L615.8289926899324,330.6941060042375 M615.8289926899324,330.6941060042375 L596.0274610331892,349.351097109459 M596.0274610331892,349.351097109459 L571.3783004865768,365.99984515513324 M571.3783004865768,365.99984515513324 L542.4873876826164,380.2266608417431 M542.4873876826164,380.2266608417431 L510.0671444490804,391.67750755960896 M510.0671444490804,391.67750755960896 L474.9188090947657,400.06704317296914 M474.9188090947657,400.06704317296914 L437.9125023967276,405.1860204708855 M437.9125023967276,405.1860204708855 L399.9653211748496,406.9066640328137 M399.9653211748496,406.9066640328137 L362.0181399529716,405.1860204708855 M362.0181399529716,405.1860204708855 L325.0118332549335,400.06704317296914 M325.0118332549335,400.06704317296914 L289.8634979006188,391.67750755960896 M289.8634979006188,391.67750755960896 L257.44325466708295,380.2266608417431 M257.44325466708295,380.2266608417431 L228.55234186312273,365.9998451551336 M228.8386664388105,563.8754014612932 L228.55234186312273,365.9998451551336 M570.5221868274168,366.8236409077547 L595.1581541832547,383.3988026746497 M595.1581541832547,383.3988026746497 L615.007665767828,401.9955385634147 M615.007665767828,401.9955385634147 L629.5790069067241,422.1593053803266 M629.5790069067241,422.1593053803266 L638.5088108788314,443.3962697434917 M638.5088108788314,443.3962697434917 L641.571383523448,465.1852201056855 M641.571383523448,465.1852201056855 L638.6848849040041,486.99025335573907 M638.6848849040041,486.99025335573907 L629.9139197870859,508.2738921226446 M629.9139197870859,508.2738921226446 L615.4686340974063,528.5103560953223 M615.4686340974063,528.5103560953223 L595.700055312584,547.1986958322877 M595.700055312584,547.1986958322877 L571.091975910889,563.875401461293 M571.091975910889,563.875401461293 L542.249264544288,578.1260952155922 M542.249264544288,578.1260952155922 L509.8831527876617,589.5961525169304 M509.8831527876617,589.5961525169304 L474.79353619939366,597.9997581646176 M474.79353619939366,597.9997581646176 L437.8490741957101,603.1273185037137 M437.8490741957101,603.1273185037137 L399.96532117484963,604.8508467523243 M399.96532117484963,604.8508467523243 L362.0815681539891,603.1273185037137 M362.0815681539891,603.1273185037137 L325.13710615030556,597.9997581646176 M325.13710615030556,597.9997581646176 L290.0474895620375,589.5961525169304 M290.0474895620375,589.5961525169304 L257.6813778054111,578.1260952155922 M257.6813778054111,578.1260952155922 L228.8386664388105,563.8754014612932 M228.55234186312273,365.9998451551336 L203.90318131650997,349.351097109459 M203.90318131650997,349.351097109459 L184.10164965976685,330.69410600423726 M184.10164965976685,330.69410600423726 L169.63234074808418,310.4916097865552 M169.63234074808418,310.4916097865552 L160.8468579808702,289.24372144351014 M160.8468579808702,289.24372144351014 L157.95568522544613,267.475340929176 M157.95568522544613,267.475340929176 L161.0235207179731,245.7230430779395 M161.0235207179731,245.7230430779395 L169.96837342613412,224.52182848643216 M169.96837342613412,224.52182848643216 L184.5641592605789,204.39202840893083 M184.5641592605789,204.39202840893083 L204.44689432144617,185.82663987262254 M204.44689432144617,185.82663987262254 L229.12403606872016,169.2794342715099 M229.12403606872016,169.2794342715099 L257.98696860961024,155.1541611778974 M257.98696860961024,155.1541611778974 L290.3260090184855,143.7949175471416 M290.3260090184855,143.7949175471416 L325.347867450038,135.4780786130969 M325.347867450038,135.4780786130969 L362.19480362766564,130.40577553373748 M362.19480362766564,130.40577553373748 L399.9653211748496,128.7012147954776 M399.9653211748496,128.7012147954776 L437.7358387220335,130.40577553373748 M437.7358387220335,130.40577553373748 L474.5827748996612,135.4780786130969 M474.5827748996612,135.4780786130969 L509.6046333312137,143.7949175471416 M509.6046333312137,143.7949175471416 L541.9436737400888,155.1541611778974 M541.9436737400888,155.1541611778974 L570.8066062809787,169.27943427150979 M228.8386664388105,563.8754014612932 L204.2305870371152,547.1986958322877 M204.2305870371152,547.1986958322877 L184.462008252293,528.5103560953223 M184.462008252293,528.5103560953223 L170.01672256261335,508.2738921226446 M170.01672256261335,508.2738921226446 L161.24575744569512,486.99025335573896 M161.24575744569512,486.99025335573896 L158.35925882625114,465.1852201056855 M158.35925882625114,465.1852201056855 L161.42183147086797,443.3962697434916 M161.42183147086797,443.3962697434916 L170.3516354429752,422.1593053803266 M170.3516354429752,422.1593053803266 L184.92297658187113,401.9955385634146 M184.92297658187113,401.9955385634146 L204.77248816644453,383.3988026746496 M204.77248816644453,383.3988026746496 L229.408455522282,366.8236409077549 M229.408455522282,366.8236409077549 L258.2232798660931,352.6744911634203 M258.2232798660931,352.6744911634203 L290.5084593985761,341.2960382269588 M290.5084593985761,341.2960382269588 L325.4720205376279,332.96513027229133 M325.4720205376279,332.96513027229133 L362.2576431105146,327.8842448024337 M362.2576431105146,327.8842448024337 L399.9653211748496,326.17679960167237 M399.9653211748496,326.17679960167237 L437.67299923918455,327.8842448024337 M437.67299923918455,327.8842448024337 L474.45862181207127,332.96513027229133 M474.45862181207127,332.96513027229133 L509.422182951123,341.2960382269588 M509.422182951123,341.2960382269588 L541.7073624836062,352.6744911634203 M541.7073624836062,352.6744911634203 L570.5221868274168,366.8236409077547" stroke="black"  stroke-width="4"  fill="red"/></svg>